<?xml version="1.0" encoding="UTF-8"?>
<svg xmlns="http://www.w3.org/2000/svg" xmlns:xlink="http://www.w3.org/1999/xlink" width="80pt" height="80pt" viewBox="0 0 80 80" version="1.1">
<g id="surface1">
<path style=" stroke:none;fill-rule:nonzero;fill:rgb(0%,0%,0%);fill-opacity:1;" d="M 68.285156 11.714844 C 60.730469 4.160156 50.683594 0 40 0 C 29.316406 0 19.269531 4.160156 11.714844 11.714844 C 4.160156 19.269531 0 29.316406 0 40 C 0 50.683594 4.160156 60.730469 11.714844 68.285156 C 19.269531 75.839844 29.316406 80 40 80 C 50.683594 80 60.730469 75.839844 68.285156 68.285156 C 75.839844 60.730469 80 50.683594 80 40 C 80 29.316406 75.839844 19.269531 68.285156 11.714844 Z M 20.054688 69.121094 C 21.726562 59.492188 30.074219 52.386719 40 52.386719 C 49.925781 52.386719 58.273438 59.492188 59.945312 69.121094 C 54.265625 73.023438 47.394531 75.3125 40 75.3125 C 32.605469 75.3125 25.730469 73.023438 20.054688 69.121094 Z M 27.28125 34.980469 C 27.28125 27.964844 32.988281 22.261719 40 22.261719 C 47.011719 22.261719 52.71875 27.964844 52.71875 34.980469 C 52.71875 41.992188 47.011719 47.699219 40 47.699219 C 32.988281 47.699219 27.28125 41.992188 27.28125 34.980469 Z M 64.007812 65.871094 C 62.746094 61.386719 60.238281 57.320312 56.726562 54.140625 C 54.574219 52.191406 52.121094 50.652344 49.484375 49.566406 C 54.25 46.457031 57.40625 41.082031 57.40625 34.980469 C 57.40625 25.382812 49.597656 17.574219 40 17.574219 C 30.402344 17.574219 22.59375 25.382812 22.59375 34.980469 C 22.59375 41.082031 25.75 46.457031 30.515625 49.566406 C 27.878906 50.652344 25.425781 52.191406 23.273438 54.140625 C 19.761719 57.316406 17.253906 61.386719 15.992188 65.871094 C 9.042969 59.417969 4.6875 50.207031 4.6875 40 C 4.6875 20.527344 20.527344 4.6875 40 4.6875 C 59.472656 4.6875 75.3125 20.527344 75.3125 40 C 75.3125 50.210938 70.957031 59.417969 64.007812 65.871094 Z M 64.007812 65.871094 "/>
</g>
</svg>
