<?xml version="1.0" standalone="no"?>
<!DOCTYPE svg PUBLIC "-//W3C//DTD SVG 1.0//EN" "http://www.w3.org/TR/2001/REC-SVG-20010904/DTD/svg10.dtd">
<svg xmlns="http://www.w3.org/2000/svg" xmlns:xlink="http://www.w3.org/1999/xlink" id="body_1" width="31" height="23">

<g transform="matrix(0.030273438 0 0 0.029947918 0 0)">
	<g transform="matrix(2.327273 0 0 2.327273 127.99999 -0)">
	</g>
    <path transform="matrix(2.327273 0 0 2.327273 127.99999 -0)"  d="M325.607 79.393C 319.75 73.535995 310.25198 73.534996 304.39398 79.394L304.39398 79.394L165.00398 218.787L25.607 79.393C 19.75 73.535995 10.252001 73.534996 4.394001 79.394C -1.4639988 85.252 -1.4639988 94.74899 4.394001 100.606995L4.394001 100.606995L154.398 250.607C 157.211 253.42 161.026 255 165.004 255C 168.982 255 172.798 253.419 175.61 250.606L175.61 250.606L325.60602 100.606C 331.465 94.749 331.465 85.251 325.607 79.393z" stroke="none" fill="#000000" fill-rule="nonzero" />
</g>
</svg>