<?xml version="1.0" standalone="no"?>
<!DOCTYPE svg PUBLIC "-//W3C//DTD SVG 1.0//EN" "http://www.w3.org/TR/2001/REC-SVG-20010904/DTD/svg10.dtd">
<svg xmlns="http://www.w3.org/2000/svg" xmlns:xlink="http://www.w3.org/1999/xlink" id="body_1" width="35" height="27">

<g transform="matrix(0.7608696 0 0 0.7714286 0 0)">
	<g transform="matrix(0.0345 0 0 0.035 5.750001 -0)">
	</g>
    <path transform="matrix(0.0345 0 0 0.035 5.750001 -0)"  d="M10 500C 10 770.6 229.3 990 500 990C 770.6 990 990 770.6 990 500C 990 229.4 770.6 10 500 10C 229.3 10 10 229.4 10 500zM913.4 500C 913.4 728.3 728.30005 913.4 500.00003 913.4C 271.6 913.4 86.6 728.3 86.6 500C 86.6 271.7 271.6 86.6 500 86.6C 728.3 86.6 913.4 271.7 913.4 500z" stroke="none" fill="#000000" fill-rule="nonzero" />
	<g transform="matrix(0.0345 0 0 0.035 5.750001 -0)">
	</g>
    <path transform="matrix(0.0345 0 0 0.035 5.750001 -0)"  d="M294.6 405.6C 282.6 417.6 282.6 436.9 294.6 448.9L294.6 448.9L478.40002 632.6C 490.40002 644.6 509.7 644.6 521.7 632.6L521.7 632.6L705.5 448.89996C 711.5 442.89996 714.5 435.09998 714.5 427.19995C 714.5 419.29993 711.5 411.49994 705.5 405.49994C 693.5 393.49994 674.2 393.49994 662.2 405.49994L662.2 405.49994L500 567.7L337.9 405.6C 325.9 393.7 306.6 393.7 294.6 405.6z" stroke="none" fill="#000000" fill-rule="nonzero" />
</g>
</svg>